<svg width="100" height="100" viewBox="0 0 100 100" fill="none" xmlns="http://www.w3.org/2000/svg">
<rect width="100" height="100" rx="20" fill="#A259FF"/>
<path d="M22.1312 55.728V44.552H21.7352L20.2832 49.832H17.5112V49.568L19.3592 43.1H25.0352V55.728H28.8632V58.5H17.7752V55.728H22.1312ZM34.6779 50.8C34.6779 50.3013 34.8613 49.8687 35.2279 49.502C35.5946 49.1353 36.0273 48.952 36.5259 48.952C37.0246 48.952 37.4573 49.1353 37.8239 49.502C38.1906 49.8687 38.3739 50.3013 38.3739 50.8C38.3739 51.2987 38.1906 51.7313 37.8239 52.098C37.4573 52.4647 37.0246 52.648 36.5259 52.648C36.0273 52.648 35.5946 52.4647 35.2279 52.098C34.8613 51.7313 34.6779 51.2987 34.6779 50.8ZM30.8499 49.084C30.8499 47.0893 31.3486 45.542 32.3459 44.442C33.3579 43.342 34.7513 42.792 36.5259 42.792C38.3006 42.792 39.6866 43.342 40.6839 44.442C41.6959 45.542 42.2019 47.0893 42.2019 49.084V52.516C42.2019 54.5693 41.6959 56.1313 40.6839 57.202C39.6866 58.2727 38.3006 58.808 36.5259 58.808C34.7513 58.808 33.3579 58.2727 32.3459 57.202C31.3486 56.1313 30.8499 54.5693 30.8499 52.516V49.084ZM36.5259 56.168C37.0539 56.168 37.4939 56.0873 37.8459 55.926C38.1979 55.75 38.4839 55.508 38.7039 55.2C38.9239 54.892 39.0779 54.5253 39.1659 54.1C39.2539 53.6747 39.2979 53.2053 39.2979 52.692V48.908C39.2979 48.424 39.2466 47.9693 39.1439 47.544C39.0413 47.1187 38.8799 46.752 38.6599 46.444C38.4399 46.136 38.1539 45.894 37.8019 45.718C37.4499 45.5273 37.0246 45.432 36.5259 45.432C36.0273 45.432 35.6019 45.5273 35.2499 45.718C34.8979 45.894 34.6119 46.136 34.3919 46.444C34.1719 46.752 34.0106 47.1187 33.9079 47.544C33.8053 47.9693 33.7539 48.424 33.7539 48.908V52.692C33.7539 53.2053 33.7979 53.6747 33.8859 54.1C33.9739 54.5253 34.1279 54.892 34.3479 55.2C34.5679 55.508 34.8539 55.75 35.2059 55.926C35.5579 56.0873 35.9979 56.168 36.5259 56.168ZM55.5186 55.728V58.5H44.6946V55.464C44.6946 54.6573 44.812 53.968 45.0466 53.396C45.296 52.824 45.6406 52.34 46.0806 51.944C46.5353 51.548 47.078 51.2253 47.7086 50.976C48.3393 50.712 49.0506 50.492 49.8426 50.316C50.4293 50.184 50.906 50.0373 51.2726 49.876C51.654 49.7 51.9546 49.5093 52.1746 49.304C52.3946 49.084 52.5413 48.8493 52.6146 48.6C52.7026 48.336 52.7466 48.0427 52.7466 47.72C52.7466 47.104 52.5193 46.5907 52.0646 46.18C51.6246 45.7693 51.0086 45.564 50.2166 45.564C49.3806 45.564 48.7133 45.8207 48.2146 46.334C47.716 46.8327 47.4666 47.5293 47.4666 48.424V49.392H44.5626V48.16C44.5626 47.4413 44.6873 46.7593 44.9366 46.114C45.2006 45.454 45.5673 44.882 46.0366 44.398C46.5206 43.8993 47.1073 43.5107 47.7966 43.232C48.486 42.9387 49.2633 42.792 50.1286 42.792C51.0526 42.792 51.8593 42.9313 52.5486 43.21C53.238 43.474 53.81 43.826 54.2646 44.266C54.734 44.706 55.0786 45.2193 55.2986 45.806C55.5333 46.378 55.6506 46.972 55.6506 47.588V47.852C55.6506 49.1427 55.284 50.2133 54.5506 51.064C53.832 51.9147 52.6513 52.5307 51.0086 52.912C50.3193 53.0733 49.7473 53.242 49.2926 53.418C48.8526 53.5793 48.508 53.7627 48.2586 53.968C48.0093 54.1733 47.8333 54.4007 47.7306 54.65C47.6426 54.8847 47.5986 55.156 47.5986 55.464V55.728H55.5186ZM58.1874 51.636V43.1H68.4834V45.872H61.0914V50.052H61.4874C61.6927 49.48 62.074 48.9887 62.6314 48.578C63.2034 48.1527 63.966 47.94 64.9194 47.94C65.638 47.94 66.2834 48.0647 66.8554 48.314C67.4274 48.5633 67.9114 48.908 68.3074 49.348C68.7034 49.788 69.004 50.316 69.2094 50.932C69.4294 51.548 69.5394 52.2227 69.5394 52.956V53.088C69.5394 53.8653 69.4074 54.5987 69.1434 55.288C68.894 55.9773 68.52 56.586 68.0214 57.114C67.5374 57.6273 66.936 58.038 66.2174 58.346C65.4987 58.654 64.67 58.808 63.7314 58.808C62.7927 58.808 61.964 58.6833 61.2454 58.434C60.5267 58.17 59.918 57.8107 59.4194 57.356C58.9354 56.8867 58.5614 56.3367 58.2974 55.706C58.048 55.0607 57.9234 54.364 57.9234 53.616V53.088H60.8274V53.352C60.8274 54.1293 61.062 54.7747 61.5314 55.288C62.0154 55.7867 62.7194 56.036 63.6434 56.036C64.5674 56.036 65.2934 55.7867 65.8214 55.288C66.364 54.7893 66.6354 54.1 66.6354 53.22C66.6354 52.384 66.4374 51.7607 66.0414 51.35C65.6454 50.9247 65.1247 50.712 64.4794 50.712C64.054 50.712 63.7094 50.8073 63.4454 50.998C63.1814 51.174 63.0127 51.3867 62.9394 51.636H58.1874ZM72.3401 49.546H75.6841V46.202H78.1921V49.546H81.5361V52.054H78.1921V55.398H75.6841V52.054H72.3401V49.546Z" fill="white"/>
</svg>
