<svg width="14" height="15" viewBox="0 0 14 15" fill="none" xmlns="http://www.w3.org/2000/svg">
<path d="M5.97733 1.18691C6.23096 0.133011 7.73004 0.133011 7.98457 1.18691L8.84145 4.73401C8.93203 5.11064 9.22643 5.40475 9.60233 5.49569L13.1494 6.35194C14.2038 6.60629 14.2038 8.10539 13.1494 8.35982L9.60233 9.21607C9.22643 9.30701 8.93203 9.60104 8.84145 9.97767L7.98457 13.5249C7.73004 14.5788 6.23096 14.5788 5.97733 13.5249L5.12045 9.97767C5.02987 9.60104 4.73548 9.30701 4.35867 9.21607L0.811566 8.35982C-0.241876 8.10539 -0.241876 6.60629 0.811566 6.35194L4.35867 5.49569C4.73548 5.40475 5.02987 5.11064 5.12045 4.73401L5.97733 1.18691Z" fill="url(#paint0_linear_34452_5910)"/>
<defs>
<linearGradient id="paint0_linear_34452_5910" x1="9.9565" y1="3.48953" x2="23" y2="13.9693" gradientUnits="userSpaceOnUse">
<stop offset="" stop-color=" rgba(162, 89, 255, 0.7)"/>
<stop offset="0.1" stop-color="yellow"/>
</linearGradient>
</defs>
</svg>
